<?xml version="1.0" standalone="no"?>
<!DOCTYPE svg PUBLIC "-//W3C//DTD SVG 20010904//EN"
 "http://www.w3.org/TR/2001/REC-SVG-20010904/DTD/svg10.dtd">
<svg version="1.0" xmlns="http://www.w3.org/2000/svg" preserveAspectRatio="xMidYMid meet">
<metadata>
Created by potrace 1.15, written by Peter Selinger 2001-2017
</metadata>
<g transform="translate(0.000000,1280.000000) scale(0.100000,-0.100000)"
stroke="none">
<path d="M1290 12790 c-450 -53 -791 -326 -999 -798 -170 -386 -253 -883 -287
-1712 -27 -668 275 -2132 610 -2955 77 -189 174 -379 254 -500 67 -101 180
-225 205 -225 8 0 248 60 533 134 285 73 690 175 899 226 209 50 385 93 392
95 8 3 11 77 12 267 3 609 51 897 216 1284 131 308 186 522 205 806 43 651
-211 1766 -551 2418 -297 567 -707 917 -1124 959 -120 12 -266 12 -365 1z"/>
<path d="M6075 9209 c-219 -29 -470 -166 -674 -369 -358 -355 -653 -976 -825
-1740 -171 -758 -194 -1234 -81 -1680 29 -116 60 -203 136 -383 81 -189 113
-284 143 -420 52 -231 76 -500 76 -853 0 -134 4 -253 9 -267 7 -18 21 -26 68
-36 103 -22 969 -238 1248 -311 149 -39 325 -84 392 -101 l122 -31 35 28 c130
108 291 376 425 706 296 731 575 1995 607 2748 6 141 -15 579 -41 840 -85 860
-310 1390 -710 1672 -123 87 -264 146 -436 184 -89 19 -391 27 -494 13z"/>
<path d="M2935 6334 c-189 -65 -427 -140 -890 -279 -225 -68 -502 -153 -615
-188 l-205 -64 3 -59 c5 -88 30 -281 57 -442 120 -690 393 -1230 769 -1514 94
-71 247 -147 361 -180 115 -32 335 -33 448 0 325 93 573 350 691 715 175 540
23 1253 -414 1955 -36 56 -67 102 -70 101 -3 0 -63 -21 -135 -45z"/>
<path d="M4638 2728 c-265 -421 -423 -822 -484 -1223 -21 -144 -22 -407 -1
-535 68 -406 268 -714 563 -867 44 -23 120 -54 169 -69 79 -24 107 -27 230
-28 144 0 199 9 323 54 239 88 480 302 650 576 237 382 385 888 446 1529 l6
60 -172 53 c-95 29 -337 103 -538 163 -561 169 -739 224 -946 294 -105 36
-193 65 -196 65 -2 0 -25 -33 -50 -72z"/>
</g>
</svg>
