<?xml version="1.0"?>
<svg width="1262" height="1280" xmlns="http://www.w3.org/2000/svg" xmlns:svg="http://www.w3.org/2000/svg" preserveAspectRatio="xMidYMid meet" version="1.0">
 <metadata>Created by potrace 1.15, written by Peter Selinger 2001-2017</metadata>
 <g class="layer">
  <title>Layer 1</title>
  <g id="svg_1" transform="matrix(1 0 0 1 0 0) matrix(0.0380528 0.00285664 0.00285664 -0.0380528 787.189 770.347)">
   <path d="m7132.16,1400.71c-785,-121 -1485,-911 -1748,-1972c-66,-268 -93,-473 -102,-762c-13,-456 64,-875 232,-1247c98,-217 210,-383 365,-538c205,-205 415,-321 680,-377c124,-26 362,-24 490,4c254,56 477,166 704,346c451,360 794,936 965,1622c76,306 105,571 98,905c-10,460 -92,820 -269,1170c-100,199 -184,316 -333,465c-199,200 -405,316 -659,371c-85,19 -336,27 -423,13z" id="svg_2"/>
   <path d="m2874.16,1145.71c-174,-23 -289,-56 -410,-116c-415,-208 -730,-650 -880,-1234c-70,-270 -97,-494 -96,-799c0,-526 108,-1010 325,-1460c132,-273 283,-492 466,-676c263,-263 547,-416 855,-458c379,-53 775,111 1063,439c273,312 452,741 529,1270c25,176 26,690 0,865c-103,706 -359,1280 -746,1679c-308,316 -621,473 -976,490c-55,2 -113,2 -130,0z" id="svg_3"/>
   <path d="m-265.84,-2014.29c-214,-30 -359,-88 -513,-204c-296,-223 -496,-618 -568,-1125c-22,-150 -25,-539 -5,-700c30,-248 87,-511 161,-735c282,-853 859,-1528 1475,-1728c140,-46 216,-57 375,-57c118,1 162,5 235,24c99,25 247,91 321,142c270,185 458,484 564,894c56,216 65,311 65,645c-1,284 -3,317 -28,471c-47,287 -113,528 -214,784c-329,832 -931,1443 -1546,1569c-79,17 -266,28 -322,20z" id="svg_4"/>
   <path d="m9891.16,-2653.29c-714,-129 -1396,-916 -1660,-1915c-128,-483 -141,-989 -37,-1401c127,-502 416,-856 795,-977c105,-34 178,-45 295,-45c131,0 226,15 355,55c255,80 497,237 727,470c138,139 217,237 329,405c277,414 458,900 530,1423c22,156 25,560 6,695c-48,337 -133,587 -276,805c-177,270 -434,446 -716,490c-88,13 -259,11 -348,-5z" id="svg_5"/>
   <path d="m4684.16,-5379.29c-456,-30 -1025,-158 -1285,-289c-179,-90 -290,-182 -615,-510c-132,-133 -283,-278 -335,-322c-149,-125 -438,-314 -953,-622c-831,-497 -1096,-691 -1201,-879c-124,-221 -188,-504 -188,-832c-1,-262 29,-458 103,-679c71,-214 152,-355 311,-541c527,-616 1387,-992 2663,-1164c451,-61 890,-93 2020,-148c438,-21 1329,-24 1590,-5c1050,75 1744,285 2288,695c135,102 334,294 414,402c136,181 193,376 193,658c0,169 -18,309 -60,477c-106,418 -249,670 -542,956c-139,136 -239,217 -587,477c-362,271 -491,378 -646,538c-135,139 -225,255 -471,604c-209,298 -332,451 -465,581c-139,135 -248,213 -404,289c-499,243 -1170,358 -1830,314z" id="svg_6"/>
  </g>
  <g id="svg_7" transform="matrix(0.037908 -0.00743988 -0.00743988 -0.037908 616.003 535.544)">
   <path d="m-3576.48,12342.82c-785,-121 -1485,-911 -1748,-1972c-66,-268 -93,-473 -102,-762c-13,-456 64,-875 232,-1247c98,-217 210,-383 365,-538c205,-205 415,-321 680,-377c124,-26 362,-24 490,4c254,56 477,166 704,346c451,360 794,936 965,1622c76,306 105,571 98,905c-10,460 -92,820 -269,1170c-100,199 -184,316 -333,465c-199,200 -405,316 -659,371c-85,19 -336,27 -423,13z" id="svg_8"/>
   <path d="m-7834.48,12087.82c-174,-23 -289,-56 -410,-116c-415,-208 -730,-650 -880,-1234c-70,-270 -97,-494 -96,-799c0,-526 108,-1010 325,-1460c132,-273 283,-492 466,-676c263,-263 547,-416 855,-458c379,-53 775,111 1063,439c273,312 452,741 529,1270c25,176 26,690 0,865c-103,706 -359,1280 -746,1679c-308,316 -621,473 -976,490c-55,2 -113,2 -130,0z" id="svg_9"/>
   <path d="m-10974.48,8927.82c-214,-30 -359,-88 -513,-204c-296,-223 -496,-618 -568,-1125c-22,-150 -25,-539 -5,-700c30,-248 87,-511 161,-735c282,-853 859,-1528 1475,-1728c140,-46 216,-57 375,-57c118,1 162,5 235,24c99,25 247,91 321,142c270,185 458,484 564,894c56,216 65,311 65,645c-1,284 -3,317 -28,471c-47,287 -113,528 -214,784c-329,832 -931,1443 -1546,1569c-79,17 -266,28 -322,20z" id="svg_10"/>
   <path d="m-817.48,8288.82c-714,-129 -1396,-916 -1660,-1915c-128,-483 -141,-989 -37,-1401c127,-502 416,-856 795,-977c105,-34 178,-45 295,-45c131,0 226,15 355,55c255,80 497,237 727,470c138,139 217,237 329,405c277,414 458,900 530,1423c22,156 25,560 6,695c-48,337 -133,587 -276,805c-177,270 -434,446 -716,490c-88,13 -259,11 -348,-5z" id="svg_11"/>
   <path d="m-6024.48,5562.82c-456,-30 -1025,-158 -1285,-289c-179,-90 -290,-182 -615,-510c-132,-133 -283,-278 -335,-322c-149,-125 -438,-314 -953,-622c-831,-497 -1096,-691 -1201,-879c-124,-221 -188,-504 -188,-832c-1,-262 29,-458 103,-679c71,-214 152,-355 311,-541c527,-616 1387,-992 2663,-1164c451,-61 890,-93 2020,-148c438,-21 1329,-24 1590,-5c1050,75 1744,285 2288,695c135,102 334,294 414,402c136,181 193,376 193,658c0,169 -18,309 -60,477c-106,418 -249,670 -542,956c-139,136 -239,217 -587,477c-362,271 -491,378 -646,538c-135,139 -225,255 -471,604c-209,298 -332,451 -465,581c-139,135 -248,213 -404,289c-499,243 -1170,358 -1830,314z" id="svg_12"/>
  </g>
 </g>
</svg>